<?xml version="1.0" encoding="utf-8"?>
<!-- Generator: Adobe Illustrator 16.0.0, SVG Export Plug-In . SVG Version: 6.00 Build 0)  -->
<!DOCTYPE svg PUBLIC "-//W3C//DTD SVG 1.1//EN" "http://www.w3.org/Graphics/SVG/1.1/DTD/svg11.dtd">
<svg version="1.1" id="Layer_1" xmlns="http://www.w3.org/2000/svg" xmlns:xlink="http://www.w3.org/1999/xlink" x="0px" y="0px"
	 width="3000px" height="3000px" viewBox="0 0 3000 3000" enable-background="new 0 0 3000 3000" xml:space="preserve">
<g>
	<g>
		<defs>
			<path id="SVGID_1_" d="M352.316,1400.41c-22.288,0.078-43.094,11.175-55.575,29.64c-16.341,25.805-24.229,56.063-22.566,86.562
				c-2.627,32.451,6.585,64.756,25.935,90.939c12.788,13.318,30.376,20.96,48.838,21.219c52.879,0,76.12-56.921,76.12-114.854
				c0-48.501-13.473-101.044-57.932-111.148C362.328,1401.304,357.341,1400.51,352.316,1400.41z M266.429,1366.729
				c3.368-4.041,7.073-8.42,10.441-11.788c25.512-22.522,58.603-34.556,92.624-33.682c91.614,2.694,158.976,70.731,158.976,193.331
				c0,75.446-33.682,192.321-159.313,192.321c-32.95-0.338-64.931-11.194-91.276-30.987v151.566H169.763v-493.77h96.666v33.682
				V1366.729z"/>
		</defs>
		<clipPath id="SVGID_2_">
			<use xlink:href="#SVGID_1_"  overflow="visible"/>
		</clipPath>
		<g clip-path="url(#SVGID_2_)">
			<rect x="153.259" y="1307.449" fill="#0077FF" width="392.725" height="536.208"/>
		</g>
	</g>
	<g>
		<defs>
			<rect id="SVGID_3_" x="-156.946" y="848.036" width="3315.258" height="1306.5"/>
		</defs>
		<defs>
			<path id="SVGID_4_" d="M681.72,1370.771c29.476-25.548,66.782-40.28,105.76-41.765v94.981l-35.702,5.726
				c-51.869,9.094-67.363,16.841-67.363,62.984v205.456h-107.78v-365.779h104.749v38.396H681.72z"/>
		</defs>
		<clipPath id="SVGID_5_">
			<use xlink:href="#SVGID_3_"  overflow="visible"/>
		</clipPath>
		<clipPath id="SVGID_6_" clip-path="url(#SVGID_5_)">
			<use xlink:href="#SVGID_4_"  overflow="visible"/>
		</clipPath>
		<g clip-path="url(#SVGID_6_)">
			<rect x="560.804" y="1312.839" fill="#0077FF" width="242.843" height="401.818"/>
		</g>
	</g>
	<g>
		<defs>
			<rect id="SVGID_7_" x="834.634" y="1333.384" width="107.106" height="364.77"/>
		</defs>
		<clipPath id="SVGID_8_">
			<use xlink:href="#SVGID_7_"  overflow="visible"/>
		</clipPath>
		<g clip-path="url(#SVGID_8_)">
			<rect x="818.13" y="1316.881" fill="#0077FF" width="139.777" height="397.439"/>
		</g>
	</g>
	<g>
		<defs>
			<rect id="SVGID_9_" x="-156.946" y="848.036" width="3315.258" height="1306.5"/>
		</defs>
		<defs>
			<path id="SVGID_10_" d="M1563.498,1471.142c-0.963-19.28-8.175-37.724-20.545-52.543c-14.321-13.407-33.265-20.768-52.88-20.546
				c-20.688-0.328-40.579,7.97-54.901,22.903c-11.723,13.873-19.205,30.827-21.556,48.838L1563.498,1471.142z M1671.279,1605.866
				c-12.403,20.233-27.345,38.797-44.46,55.238c-37.92,34.476-87.522,53.258-138.768,52.543
				c-109.128,0-185.921-70.058-185.921-191.311c0-88.919,43.786-202.088,188.615-202.088c49.667-1.613,97.759,17.55,132.705,52.879
				c47.827,51.533,50.521,123.948,52.206,165.376h-263.052c-4.838,45.878,28.431,86.991,74.309,91.83
				c3.175,0.335,6.366,0.487,9.559,0.457c41.895,0.483,79.431-25.806,93.297-65.342l81.51,41.765V1605.866z"/>
		</defs>
		<clipPath id="SVGID_11_">
			<use xlink:href="#SVGID_9_"  overflow="visible"/>
		</clipPath>
		<clipPath id="SVGID_12_" clip-path="url(#SVGID_11_)">
			<use xlink:href="#SVGID_10_"  overflow="visible"/>
		</clipPath>
		<g clip-path="url(#SVGID_12_)">
			<rect x="1285.964" y="1304.081" fill="#0077FF" width="405.86" height="427.417"/>
		</g>
	</g>
	<g>
		<defs>
			<rect id="SVGID_13_" x="1722.812" y="1174.408" width="111.485" height="523.408"/>
		</defs>
		<clipPath id="SVGID_14_">
			<use xlink:href="#SVGID_13_"  overflow="visible"/>
		</clipPath>
		<g clip-path="url(#SVGID_14_)">
			<rect x="1706.308" y="1158.241" fill="#0077FF" width="144.156" height="556.079"/>
		</g>
	</g>
	<g>
		<defs>
			<rect id="SVGID_15_" x="1903.007" y="1333.384" width="107.106" height="364.77"/>
		</defs>
		<clipPath id="SVGID_16_">
			<use xlink:href="#SVGID_15_"  overflow="visible"/>
		</clipPath>
		<g clip-path="url(#SVGID_16_)">
			<rect x="1886.503" y="1316.881" fill="#0077FF" width="139.777" height="397.439"/>
		</g>
	</g>
	<g>
		<defs>
			<rect id="SVGID_17_" x="-156.946" y="848.036" width="3315.258" height="1306.5"/>
		</defs>
		<defs>
			<path id="SVGID_18_" d="M2196.371,1366.392c9.863-12.111,22.285-21.889,36.376-28.629c21.447-8.514,44.289-12.968,67.363-13.136
				c22.655-0.39,45.071,4.693,65.342,14.82c38.396,20.208,49.175,52.88,49.175,109.464v249.242h-108.454v-205.119
				c1.729-18.344,0.017-36.85-5.053-54.564c-8.842-18.44-28.112-29.548-48.501-27.955c-56.922,0-56.922,45.47-56.922,90.939v196.699
				h-108.453v-363.759h109.127v33.682V1366.392z"/>
		</defs>
		<clipPath id="SVGID_19_">
			<use xlink:href="#SVGID_17_"  overflow="visible"/>
		</clipPath>
		<clipPath id="SVGID_20_" clip-path="url(#SVGID_19_)">
			<use xlink:href="#SVGID_18_"  overflow="visible"/>
		</clipPath>
		<g clip-path="url(#SVGID_20_)">
			<rect x="2071.076" y="1308.46" fill="#0077FF" width="358.707" height="405.86"/>
		</g>
	</g>
	<g>
		<defs>
			<rect id="SVGID_21_" x="-156.946" y="848.036" width="3315.258" height="1306.5"/>
		</defs>
		<defs>
			<path id="SVGID_22_" d="M2717.759,1471.142c-0.963-19.28-8.175-37.724-20.546-52.543c-14.32-13.407-33.264-20.768-52.879-20.546
				c-20.688-0.328-40.579,7.971-54.9,22.903c-11.723,13.873-19.206,30.827-21.557,48.838L2717.759,1471.142z M2825.539,1605.866
				c-12.402,20.233-27.344,38.797-44.459,55.238c-37.92,34.477-87.522,53.258-138.768,52.543
				c-109.127,0-185.921-70.058-185.921-191.311c0-88.919,43.786-202.088,188.615-202.088c49.667-1.613,97.759,17.55,132.705,52.879
				c47.827,51.533,50.522,123.948,51.869,165.376h-262.715c-5.023,45.857,28.08,87.105,73.938,92.129
				c3.185,0.349,6.388,0.514,9.592,0.495c41.836,0.547,79.308-25.793,92.961-65.342l81.846,41.765L2825.539,1605.866z"/>
		</defs>
		<clipPath id="SVGID_23_">
			<use xlink:href="#SVGID_21_"  overflow="visible"/>
		</clipPath>
		<clipPath id="SVGID_24_" clip-path="url(#SVGID_23_)">
			<use xlink:href="#SVGID_22_"  overflow="visible"/>
		</clipPath>
		<g clip-path="url(#SVGID_24_)">
			<rect x="2440.225" y="1304.081" fill="#0077FF" width="405.86" height="427.417"/>
		</g>
	</g>
	<g>
		<defs>
			<rect id="SVGID_25_" x="-156.946" y="848.036" width="3315.258" height="1306.5"/>
		</defs>
		<defs>
			<path id="SVGID_26_" d="M1249.251,1591.047c0,0-2.357,0-3.031,0c-2.317,4.257-5.145,8.216-8.42,11.788
				c-13.758,16.234-33.959,25.596-55.237,25.599c-57.933,0-81.846-61.638-81.846-110.139s19.871-111.485,78.477-111.485
				c14.719,0.401,28.953,5.342,40.755,14.146c12.04,8.657,21.664,20.253,27.956,33.682c0,0,2.357,1.684,2.694,0
				c8.396-31.066,24.767-59.397,47.49-82.183c-33.868-30.747-78.213-47.376-123.947-46.48
				c-122.937,0-185.247,90.266-185.247,197.709c0,150.556,112.495,192.995,183.227,192.995c45.269,0.195,88.983-16.498,122.6-46.817
				c-21.824-21.281-37.528-48.037-45.47-77.468"/>
		</defs>
		<clipPath id="SVGID_27_">
			<use xlink:href="#SVGID_25_"  overflow="visible"/>
		</clipPath>
		<clipPath id="SVGID_28_" clip-path="url(#SVGID_27_)">
			<use xlink:href="#SVGID_26_"  overflow="visible"/>
		</clipPath>
		<g clip-path="url(#SVGID_28_)">
			<rect x="972.727" y="1308.46" fill="#0077FF" width="341.529" height="423.038"/>
		</g>
	</g>
	<g>
		<defs>
			<rect id="SVGID_29_" x="-156.946" y="848.036" width="3315.258" height="1306.5"/>
		</defs>
		<defs>
			<path id="SVGID_30_" d="M946.119,1241.098c0,31.995-25.938,57.932-57.933,57.932s-57.932-25.937-57.932-57.932
				s25.937-57.933,57.932-57.933l0,0C920.182,1183.165,946.119,1209.103,946.119,1241.098"/>
		</defs>
		<clipPath id="SVGID_31_">
			<use xlink:href="#SVGID_29_"  overflow="visible"/>
		</clipPath>
		<clipPath id="SVGID_32_" clip-path="url(#SVGID_31_)">
			<use xlink:href="#SVGID_30_"  overflow="visible"/>
		</clipPath>
		<g clip-path="url(#SVGID_32_)">
			<rect x="814.088" y="1166.661" fill="#0077FF" width="148.535" height="148.535"/>
		</g>
	</g>
	<g>
		<defs>
			<rect id="SVGID_33_" x="-156.946" y="848.036" width="3315.258" height="1306.5"/>
		</defs>
		<defs>
			<path id="SVGID_34_" d="M2018.871,1241.098c0,31.995-25.938,57.932-57.933,57.932s-57.932-25.937-57.932-57.932
				s25.937-57.933,57.932-57.933S2018.871,1209.103,2018.871,1241.098L2018.871,1241.098"/>
		</defs>
		<clipPath id="SVGID_35_">
			<use xlink:href="#SVGID_33_"  overflow="visible"/>
		</clipPath>
		<clipPath id="SVGID_36_" clip-path="url(#SVGID_35_)">
			<use xlink:href="#SVGID_34_"  overflow="visible"/>
		</clipPath>
		<g clip-path="url(#SVGID_36_)">
			<rect x="1886.503" y="1166.661" fill="#0077FF" width="148.534" height="148.535"/>
		</g>
	</g>
	<g>
		<defs>
			<rect id="SVGID_37_" x="-156.946" y="848.036" width="3315.258" height="1306.5"/>
		</defs>
		<defs>
			<path id="SVGID_38_" d="M2860.568,1331.7h7.072c6.063,0,10.105,0,10.105-6.399s-4.043-5.389-9.432-5.389h-7.746v12.799V1331.7z
				 M2854.168,1313.513h15.831c9.431,0,13.81,4.041,13.81,11.788c0.399,6.088-4.045,11.421-10.105,12.125l11.789,18.188h-7.073
				l-11.451-18.188h-6.399v18.188h-6.4V1313.513z M2867.305,1365.045c16.918,0.557,31.085-12.706,31.642-29.625
				c0.558-16.918-12.706-31.085-29.624-31.642c-16.919-0.558-31.086,12.706-31.643,29.624c-0.015,0.443-0.02,0.886-0.016,1.329
				C2837.836,1351.142,2850.902,1364.505,2867.305,1365.045z M2867.305,1297.682c19.811-1.922,37.428,12.58,39.35,32.392
				c1.922,19.811-12.579,37.428-32.391,39.351c-2.314,0.224-4.645,0.224-6.959,0c-19.812-1.923-34.313-19.54-32.391-39.351
				C2836.577,1312.92,2850.152,1299.346,2867.305,1297.682z"/>
		</defs>
		<clipPath id="SVGID_39_">
			<use xlink:href="#SVGID_37_"  overflow="visible"/>
		</clipPath>
		<clipPath id="SVGID_40_" clip-path="url(#SVGID_39_)">
			<use xlink:href="#SVGID_38_"  overflow="visible"/>
		</clipPath>
		<g clip-path="url(#SVGID_40_)">
			<rect x="2815.098" y="1282.188" fill="#0077FF" width="104.412" height="104.412"/>
		</g>
	</g>
</g>
</svg>
